<svg width="32" height="27" viewBox="0 0 32 27" fill="none" xmlns="http://www.w3.org/2000/svg">
<g filter="url(#filter0_d_812_390)">
<path d="M24.3137 1.59304C22.7606 0.854804 21.1066 0.310838 19.3641 0C19.1495 0.388547 18.897 0.919562 18.7328 1.34696C16.8894 1.06203 15.0586 1.06203 13.253 1.34696C13.0763 0.919562 12.8237 0.388547 12.6091 0C10.8666 0.310838 9.2126 0.854804 7.65956 1.59304C4.52823 6.43693 3.68227 11.1643 4.09894 15.8139C6.18228 17.407 8.18986 18.3654 10.1722 19C10.6646 18.3136 11.0939 17.5753 11.4727 16.8112C10.753 16.5392 10.0712 16.1895 9.42724 15.788C9.60401 15.6585 9.76815 15.516 9.9323 15.3865C13.8843 17.2774 18.1646 17.2774 22.0662 15.3865C22.2303 15.529 22.3945 15.6585 22.5712 15.788C21.9273 16.1895 21.2328 16.5262 20.5258 16.8112C20.9046 17.5753 21.3338 18.3136 21.8263 19C23.8086 18.3654 25.8288 17.407 27.8995 15.8139C28.392 10.4131 27.0536 5.73755 24.3389 1.59304H24.3137ZM12.003 12.9646C10.8161 12.9646 9.84391 11.8378 9.84391 10.452C9.84391 9.06614 10.7909 7.93935 12.003 7.93935C13.2151 7.93935 14.1747 9.06614 14.1621 10.452C14.1621 11.8248 13.2151 12.9646 12.003 12.9646ZM19.9702 12.9646C18.7833 12.9646 17.8111 11.8378 17.8111 10.452C17.8111 9.06614 18.7581 7.93935 19.9702 7.93935C21.1823 7.93935 22.1419 9.06614 22.1293 10.452C22.1293 11.8248 21.1823 12.9646 19.9702 12.9646Z" fill="url(#paint0_linear_812_390)"/>
</g>
<defs>
<filter id="filter0_d_812_390" x="0" y="0" width="32" height="27" filterUnits="userSpaceOnUse" color-interpolation-filters="sRGB">
<feFlood flood-opacity="0" result="BackgroundImageFix"/>
<feColorMatrix in="SourceAlpha" type="matrix" values="0 0 0 0 0 0 0 0 0 0 0 0 0 0 0 0 0 0 127 0" result="hardAlpha"/>
<feOffset dy="4"/>
<feGaussianBlur stdDeviation="2"/>
<feComposite in2="hardAlpha" operator="out"/>
<feColorMatrix type="matrix" values="0 0 0 0 0 0 0 0 0 0 0 0 0 0 0 0 0 0 0.25 0"/>
<feBlend mode="normal" in2="BackgroundImageFix" result="effect1_dropShadow_812_390"/>
<feBlend mode="normal" in="SourceGraphic" in2="effect1_dropShadow_812_390" result="shape"/>
</filter>
<linearGradient id="paint0_linear_812_390" x1="27.9946" y1="-1.51377e-06" x2="3.53403" y2="18.3872" gradientUnits="userSpaceOnUse">
<stop stop-color="#8D4BC1"/>
<stop offset="1" stop-color="#C667F2"/>
</linearGradient>
</defs>
</svg>
