<svg width="19" height="19" viewBox="0 0 19 19" fill="none" xmlns="http://www.w3.org/2000/svg">
<path d="M16.2216 2.78685C12.5139 -0.925396 6.49892 -0.929087 2.78662 2.77856C-0.925628 6.4863 -0.929365 12.5014 2.77837 16.2136C6.48602 19.9259 12.5011 19.9296 16.2134 16.2219C19.9256 12.5142 19.9294 6.4991 16.2216 2.78685ZM10.8264 15.5284C10.8264 15.675 10.7077 15.7937 10.5612 15.7937H8.43888C8.29239 15.7937 8.1736 15.675 8.1736 15.5284V7.65005C8.1736 7.50346 8.29239 7.38477 8.43888 7.38477H10.5612C10.7077 7.38477 10.8264 7.50342 10.8264 7.65005V15.5284ZM9.50002 6.2838C8.65167 6.2838 7.96144 5.59366 7.96144 4.74527C7.96144 3.89697 8.65163 3.2067 9.50002 3.2067C10.3484 3.2067 11.0386 3.89693 11.0386 4.74527C11.0386 5.59366 10.3483 6.2838 9.50002 6.2838Z" fill="url(#paint0_linear_829_8)"/>
<defs>
<linearGradient id="paint0_linear_829_8" x1="9.5" y1="0.000244141" x2="9.5" y2="19.0003" gradientUnits="userSpaceOnUse">
<stop stop-color="#681F54"/>
<stop offset="1" stop-color="#28001E"/>
</linearGradient>
</defs>
</svg>
