<svg width="25" height="25" viewBox="0 0 25 25" fill="none" xmlns="http://www.w3.org/2000/svg">
<path d="M17.5425 0H7.44408C5.47025 0.0015041 3.57769 0.786272 2.18198 2.18198C0.786272 3.57769 0.0015041 5.47025 0 7.44408V17.5425C0.00120329 19.5166 0.785838 21.4094 2.18158 22.8054C3.57732 24.2013 5.47005 24.9862 7.44408 24.9878H17.5425C19.5165 24.986 21.409 24.2009 22.8047 22.805C24.2004 21.4092 24.9851 19.5165 24.9866 17.5425V7.44408C24.9857 5.47006 24.2011 3.57716 22.8053 2.18132C21.4095 0.785478 19.5166 0.000902958 17.5425 0ZM22.4742 17.5425C22.4739 18.8504 21.9542 20.1046 21.0294 21.0294C20.1046 21.9542 18.8504 22.4739 17.5425 22.4742H7.44408C6.7965 22.4742 6.15526 22.3466 5.55698 22.0988C4.95871 21.8509 4.41512 21.4877 3.95726 21.0297C3.4994 20.5717 3.13625 20.0281 2.88853 19.4297C2.64081 18.8314 2.51339 18.1901 2.51354 17.5425V7.44408C2.51339 6.79655 2.64082 6.15533 2.88855 5.55707C3.13628 4.9588 3.49946 4.4152 3.95733 3.95733C4.4152 3.49946 4.9588 3.13628 5.55707 2.88855C6.15534 2.64082 6.79655 2.51339 7.44408 2.51354H17.5425C18.8501 2.51384 20.104 3.0334 21.0286 3.95799C21.9532 4.88258 22.4728 6.13651 22.4731 7.44408L22.4742 17.5425Z" fill="url(#paint0_linear_839_68)"/>
<path d="M12.4916 6.03341C8.92744 6.03341 6.03114 8.93085 6.03114 12.4939C6.03114 16.0569 8.92858 18.9543 12.4916 18.9543C16.0546 18.9543 18.9521 16.0569 18.9521 12.4939C18.9521 8.93085 16.0558 6.03341 12.4916 6.03341ZM12.4916 16.4408C11.4448 16.441 10.4408 16.0253 9.70054 15.2852C8.96024 14.5451 8.54426 13.5412 8.54411 12.4944C8.54396 11.4477 8.95965 10.4437 9.69974 9.70338C10.4398 8.96308 11.4437 8.5471 12.4905 8.54695C13.5373 8.54679 14.5412 8.96249 15.2815 9.70257C16.0218 10.4427 16.4378 11.4465 16.438 12.4933C16.4381 13.5401 16.0224 14.5441 15.2823 15.2844C14.5423 16.0247 13.5384 16.4407 12.4916 16.4408ZM18.9657 4.533C19.2718 4.53323 19.5709 4.62419 19.8254 4.79438C20.0798 4.96457 20.278 5.20637 20.3951 5.4892C20.5121 5.77203 20.5426 6.08321 20.4829 6.38341C20.4231 6.6836 20.2757 6.95935 20.0592 7.17578C19.8428 7.39222 19.5671 7.53964 19.2669 7.59941C18.9667 7.65918 18.6555 7.62862 18.3727 7.51159C18.0898 7.39456 17.848 7.19631 17.6778 6.9419C17.5076 6.68749 17.4167 6.38833 17.4165 6.08224C17.4165 5.22812 17.9957 4.533 18.9657 4.533Z" fill="url(#paint1_linear_839_68)"/>
<defs>
<linearGradient id="paint0_linear_839_68" x1="22.4403" y1="1.51329" x2="1.05189" y2="24.3042" gradientUnits="userSpaceOnUse">
<stop stop-color="#FEE665"/>
<stop offset="0.505208" stop-color="#F16161"/>
<stop offset="1" stop-color="#61A4F1"/>
</linearGradient>
<linearGradient id="paint1_linear_839_68" x1="25" y1="29" x2="-0.127726" y2="-1.39441" gradientUnits="userSpaceOnUse">
<stop stop-color="#FEE665"/>
<stop offset="0.376253" stop-color="#F16161"/>
<stop offset="1" stop-color="#8F61F1"/>
</linearGradient>
</defs>
</svg>
