<svg width="560" height="226" viewBox="0 0 560 226" fill="none" xmlns="http://www.w3.org/2000/svg">
<path d="M266.3 132.9L265.9 95.5H280.4C286.333 95.4333 291.433 96.4667 295.7 98.6C300.033 100.733 303.333 103.633 305.6 107.3C307.933 110.9 309.1 114.9 309.1 119.3C309.1 124.633 307.567 129.133 304.5 132.8C301.433 136.467 297.167 139.033 291.7 140.5L313.8 165H292.4L266.3 132.9ZM254 95.5H272.3V165H254V95.5ZM279.3 130.2C282.767 130.133 285.567 129.2 287.7 127.4C289.833 125.6 290.833 123.033 290.7 119.7C290.567 116.567 289.467 114.233 287.4 112.7C285.4 111.1 282.667 110.333 279.2 110.4H269.8L269.7 130.2H279.3ZM347.919 166.9C340.585 166.9 334.252 165.367 328.919 162.3C323.652 159.167 319.619 154.9 316.819 149.5C314.085 144.1 312.785 138.033 312.919 131.3C313.052 124.9 314.585 119 317.519 113.6C320.519 108.133 324.752 103.767 330.219 100.5C335.752 97.1667 342.152 95.5 349.419 95.5C356.685 95.5 362.985 97.0667 368.319 100.2C373.652 103.333 377.685 107.633 380.419 113.1C383.219 118.5 384.585 124.567 384.519 131.3C384.385 137.967 382.752 144 379.619 149.4C376.485 154.8 372.152 159.067 366.619 162.2C361.152 165.333 354.919 166.9 347.919 166.9ZM348.219 151.1C351.752 151.1 354.852 150.2 357.519 148.4C360.252 146.6 362.352 144.2 363.819 141.2C365.352 138.133 366.185 134.833 366.319 131.3C366.452 127.567 365.819 124.2 364.419 121.2C363.085 118.2 361.085 115.833 358.419 114.1C355.819 112.3 352.719 111.4 349.119 111.4C345.585 111.4 342.452 112.333 339.719 114.2C337.052 116 334.952 118.433 333.419 121.5C331.952 124.5 331.185 127.767 331.119 131.3C330.919 135.1 331.485 138.5 332.819 141.5C334.219 144.433 336.219 146.767 338.819 148.5C341.485 150.233 344.619 151.1 348.219 151.1ZM424.677 166.9C417.343 166.9 411.01 165.367 405.677 162.3C400.41 159.167 396.377 154.9 393.577 149.5C390.843 144.1 389.543 138.033 389.677 131.3C389.81 124.9 391.343 119 394.277 113.6C397.277 108.133 401.51 103.767 406.977 100.5C412.51 97.1667 418.91 95.5 426.177 95.5C433.443 95.5 439.743 97.0667 445.077 100.2C450.41 103.333 454.443 107.633 457.177 113.1C459.977 118.5 461.343 124.567 461.277 131.3C461.143 137.967 459.51 144 456.377 149.4C453.243 154.8 448.91 159.067 443.377 162.2C437.91 165.333 431.677 166.9 424.677 166.9ZM424.977 151.1C428.51 151.1 431.61 150.2 434.277 148.4C437.01 146.6 439.11 144.2 440.577 141.2C442.11 138.133 442.943 134.833 443.077 131.3C443.21 127.567 442.577 124.2 441.177 121.2C439.843 118.2 437.843 115.833 435.177 114.1C432.577 112.3 429.477 111.4 425.877 111.4C422.343 111.4 419.21 112.333 416.477 114.2C413.81 116 411.71 118.433 410.177 121.5C408.71 124.5 407.943 127.767 407.877 131.3C407.677 135.1 408.243 138.5 409.577 141.5C410.977 144.433 412.977 146.767 415.577 148.5C418.243 150.233 421.377 151.1 424.977 151.1Z" fill="url(#paint0_linear_839_36)"/>
<path d="M256.2 156.875H270.975C275.725 156.875 279.75 157.725 283.05 159.425C286.4 161.075 288.9 163.3 290.55 166.1C292.2 168.9 293.075 172 293.175 175.4C293.275 179.3 292.425 182.75 290.625 185.75C288.825 188.75 286.175 191.125 282.675 192.875C279.175 194.575 275.025 195.45 270.225 195.5H255.375L256.2 156.875ZM253.125 156.875H261.825V209H253.125V156.875ZM271.05 188C275.25 188 278.525 186.875 280.875 184.625C283.275 182.325 284.375 179.225 284.175 175.325C284.025 171.875 282.725 169.175 280.275 167.225C277.875 165.275 274.8 164.3 271.05 164.3H258.225L258 188H271.05ZM314.355 184.55L314.205 156.875H326.28C330.33 156.825 333.83 157.55 336.78 159.05C339.78 160.5 342.055 162.475 343.605 164.975C345.205 167.425 346.005 170.175 346.005 173.225C346.005 177.775 344.53 181.475 341.58 184.325C338.63 187.175 334.48 188.8 329.13 189.2L349.53 209H338.355L314.355 184.55ZM309.18 156.875H317.955V209H309.18V156.875ZM325.755 183.2C329.355 183.2 332.155 182.325 334.155 180.575C336.155 178.825 337.105 176.4 337.005 173.3C336.855 170.25 335.805 168.025 333.855 166.625C331.905 165.175 329.23 164.475 325.83 164.525H316.08L316.155 183.2H325.755ZM364.59 156.875H373.215V209H364.59V156.875ZM422.261 164.45H390.011V156.875H438.311L403.736 201.65H436.886V209H387.836L422.261 164.45ZM452.484 156.875H487.284V164.45H461.109V179.375H484.209L484.134 187.175H461.109V201.2H487.734V209H452.484V156.875ZM526.148 210.425C521.548 210.425 517.498 209.65 513.998 208.1C510.548 206.5 507.823 204.375 505.823 201.725C503.873 199.025 502.823 195.975 502.673 192.575H511.073C511.673 195.725 513.198 198.25 515.648 200.15C518.148 202 521.498 202.95 525.698 203C530.148 203.05 533.648 202.325 536.198 200.825C538.798 199.275 540.123 197.2 540.173 194.6C540.173 192.3 539.048 190.55 536.798 189.35C534.548 188.1 530.823 187.275 525.623 186.875C518.873 186.275 513.773 184.725 510.323 182.225C506.923 179.675 505.248 176.225 505.298 171.875C505.348 169.075 506.273 166.525 508.073 164.225C509.873 161.925 512.323 160.125 515.423 158.825C518.573 157.525 522.123 156.875 526.073 156.875C530.373 156.875 534.148 157.65 537.398 159.2C540.698 160.75 543.298 162.825 545.198 165.425C547.148 168.025 548.373 170.9 548.873 174.05H539.948C539.298 171.25 537.823 168.95 535.523 167.15C533.223 165.35 530.073 164.45 526.073 164.45C523.573 164.45 521.398 164.825 519.548 165.575C517.748 166.275 516.373 167.225 515.423 168.425C514.473 169.625 513.998 170.9 513.998 172.25C513.998 174.2 514.798 175.775 516.398 176.975C517.998 178.125 520.573 178.875 524.123 179.225L525.923 179.375C534.123 179.975 540.023 181.575 543.623 184.175C547.273 186.725 549.123 190.125 549.173 194.375C549.173 197.275 548.273 199.95 546.473 202.4C544.723 204.85 542.098 206.8 538.598 208.25C535.098 209.7 530.948 210.425 526.148 210.425Z" fill="url(#paint1_linear_839_36)"/>
<path d="M161.622 0C161.472 0 161.622 0.443803 161.622 0C161.773 0 161.678 0.00471926 161.678 0.00471926V0.11326C162.51 0.311464 162.811 1.02405 163.187 1.62339C164.465 3.6479 165.518 5.7904 166.458 7.99896C167.426 10.2689 168.225 12.6048 168.906 14.9691C169.794 18.0319 170.316 21.1843 170.603 24.3602C170.758 26.0591 170.762 27.7675 170.847 29.4711C170.936 31.3115 170.762 33.1473 170.711 34.9878C170.687 35.7475 170.687 36.5215 170.607 37.2813C170.415 39.1029 170.203 40.9292 169.94 42.7413C169.672 44.5865 169.437 46.4506 169 48.258C167.985 52.4769 166.909 56.6723 165.348 60.7355C164.136 63.8926 162.919 67.045 161.471 70.0935C160.358 72.4389 159.211 74.7749 157.97 77.059C156.758 79.3006 155.493 81.5044 154.079 83.6233C153.195 84.9447 152.293 86.2472 151.151 87.3609C150.921 87.4505 150.676 87.4553 150.432 87.4505C148.914 87.4317 147.401 87.3986 145.883 87.3986C134.952 87.3986 124.025 87.3986 113.094 87.3845C112.544 87.3845 112.422 87.5449 112.422 88.0782C112.441 96.6387 112.408 105.199 112.455 113.76C112.464 115.322 112.159 116.898 112.737 118.474C112.986 119.159 113.461 119.673 113.696 120.338C113.809 120.654 114.208 120.664 114.452 120.872C115.073 121.391 115.759 121.773 116.619 121.773C144.083 121.768 171.547 121.768 199.011 121.773C199.312 121.773 199.608 121.792 199.909 121.801C199.932 122.042 199.975 122.283 199.975 122.523C199.979 124.312 199.975 126.096 199.975 127.884C199.975 131.947 199.975 136.011 199.965 140.074C199.965 140.258 200.125 140.55 199.759 140.612C199.721 140.569 199.665 140.536 199.646 140.489C199.336 139.602 198.922 138.776 198.132 138.229C197.362 137.7 196.577 137.176 195.576 137.181C169.442 137.181 143.308 137.181 117.169 137.195C116.501 137.195 115.843 137.058 115.167 137.563C114.725 137.893 114.18 138.205 113.776 138.573C112.85 139.418 112.422 140.574 112.422 141.843C112.408 168.186 112.413 194.533 112.366 220.875C112.366 222.371 112.85 223.626 113.512 224.872C113.63 225.094 113.672 225.254 113.625 225.476C113.602 225.58 113.611 225.712 113.776 225.726C113.893 225.736 113.935 225.66 113.949 225.556C113.964 225.471 113.94 225.363 114.095 225.306C114.288 225.604 114.791 225.533 114.899 225.976C114.673 225.986 114.448 226 114.227 226C109.706 226 105.19 226 100.669 226C99.0378 226 97.4071 225.986 95.7763 225.981C95.8092 225.693 96.0301 225.552 96.2604 225.533C96.5424 225.514 96.688 225.349 96.876 225.193C97.3554 224.797 97.5011 224.188 97.7971 223.683C97.9757 223.371 98.1825 222.994 98.1778 222.522C98.1449 195.401 98.1355 168.285 98.1261 141.164C98.1261 140.994 98.1637 140.805 98.1073 140.659C97.7125 139.625 97.1721 138.686 96.345 137.931C96.2463 137.837 96.1382 137.728 96.0066 137.761C95.6072 137.86 95.3111 137.61 95.0855 137.393C94.8317 137.153 94.5826 137.129 94.2819 137.129C67.8281 137.129 41.3697 137.129 14.9159 137.124C14.0935 137.124 13.4356 137.544 12.8528 137.978C12.0633 138.568 11.3255 139.295 11.0764 140.338C10.9025 140.173 10.9448 139.96 10.9448 139.758C10.9448 133.911 10.9448 128.064 10.9448 122.216C10.9448 122.037 10.8743 121.834 11.0576 121.693C11.3396 121.683 11.6215 121.674 11.8988 121.674C39.3818 121.674 66.8647 121.674 94.3524 121.693C94.9868 121.693 95.4333 121.334 95.9784 121.188C96.0865 121.159 96.2698 121.15 96.3638 121.013C96.7491 120.433 97.4353 120.126 97.6656 119.366C97.8253 118.838 98.1214 118.356 98.1214 117.771C98.1167 107.889 98.1214 98.0073 98.1214 88.1301C98.1214 88.0168 98.112 87.9036 98.1214 87.7903C98.1543 87.4836 98.0039 87.3845 97.722 87.4081C97.5716 87.4222 97.4212 87.4081 97.2708 87.4081C85.2729 87.3845 73.2749 87.46 61.277 87.3515C61.1971 87.3043 61.1219 87.2476 61.0373 87.2099C57.2306 85.4968 53.3723 83.9112 49.4858 82.3963C46.6144 81.2732 43.8322 79.9565 41.0689 78.5974C38.7943 77.4837 36.6513 76.1388 34.5036 74.808C32.7178 73.699 30.9461 72.5569 29.2589 71.3016C27.3509 69.8812 25.5181 68.371 23.7887 66.7335C22.7313 65.733 21.7632 64.6382 20.8045 63.5339C19.4463 61.9766 18.3137 60.2588 17.1153 58.5835C16.1284 57.2008 15.3201 55.7143 14.5916 54.19C13.9196 52.7884 13.304 51.3585 12.7306 49.9097C11.9035 47.8144 11.208 45.6766 10.6205 43.5058C10.0942 41.5568 9.61483 39.5889 9.24356 37.6022C8.94279 35.9788 8.66552 34.3554 8.43994 32.7178C8.23316 31.2313 8.06867 29.7353 8.03108 28.2441C7.96059 25.2333 7.98878 22.2177 8.34125 19.2164C8.45874 18.2112 8.43994 17.2155 9.17777 16.3802C9.52084 15.9885 9.8968 15.7053 10.3574 15.6534C11.645 15.4977 12.9515 15.6959 14.1499 16.0498C16.0861 16.6161 18.074 16.9276 20.0055 17.4844C21.7632 17.9894 23.5772 18.282 25.3724 18.6312C27.1394 18.971 28.8548 19.542 30.5889 20.0092C33.4885 20.7926 36.4069 21.4768 39.2972 22.3027C40.9373 22.7699 42.5728 23.2465 44.1894 23.7798C47.7986 24.9784 51.2011 26.6632 54.6224 28.2913C58.1894 29.9902 61.6811 31.8401 65.0789 33.8599C66.8412 34.9075 68.6271 35.908 70.3565 36.9981C72.4572 38.3289 74.5297 39.7069 76.5787 41.1179C77.9463 42.0618 79.2856 43.0528 80.5686 44.1051C81.8234 45.1292 83.0782 46.1627 84.2953 47.2387C85.8415 48.6072 87.3407 50.0182 88.7834 51.4906C90.3578 53.0998 91.8804 54.7563 93.342 56.474C94.061 57.3188 94.8082 58.1399 95.5038 59.0035C96.6552 60.4334 97.7784 61.8822 98.8921 63.3404C99.0096 63.4962 99.0754 63.515 99.2352 63.4678C99.926 63.2602 100.612 63.0337 101.317 62.8685C103.587 62.3258 105.876 61.9247 108.216 61.92C108.667 61.92 109.118 61.9058 109.565 61.92C109.866 61.9294 110.016 61.8539 110.096 61.5188C110.26 60.8346 110.538 60.1739 110.707 59.4896C111.069 58.0314 111.806 56.7289 112.427 55.3839C113.545 52.9583 114.673 50.5421 115.843 48.14C116.558 46.6724 117.357 45.2425 118.113 43.7984C119.345 41.4483 120.679 39.1548 122.089 36.9084C123.706 34.3271 125.44 31.8259 127.212 29.3578C128.88 27.0266 130.685 24.7944 132.536 22.6094C134.472 20.3207 136.451 18.0696 138.585 15.9696C139.501 15.0682 140.38 14.1197 141.315 13.2372C142.485 12.1282 143.665 11.0192 144.901 9.97628C146.555 8.57941 148.242 7.21558 149.962 5.90365C151.499 4.7333 153.054 3.58183 154.68 2.54362C156.344 1.48653 158.017 0.382251 160.057 0.132136" fill="url(#paint2_linear_839_36)"/>
<path d="M151.74 88.0047C151.946 88.0093 152.153 88.0233 152.355 88.0233C170.576 88.0279 188.797 88.0373 207.017 88.0373C207.356 88.0373 207.689 88.014 208.027 88.0093C209.891 87.9767 211.127 88.8149 211.798 90.5659C211.836 90.6637 211.84 90.7988 212 90.687V119.275C211.76 119.196 211.807 119.406 211.761 119.513C211.098 121.157 209.713 122.023 207.919 122C205.435 121.967 202.946 121.986 200.462 121.986C200.161 121.976 199.865 121.958 199.565 121.958C172.121 121.958 144.677 121.958 117.233 121.958C116.374 121.958 115.688 121.58 115.068 121.068C114.824 120.868 114.42 120.854 114.312 120.542C114.077 119.885 113.603 119.378 113.354 118.703C112.776 117.147 113.082 115.592 113.072 114.05C113.025 105.603 113.054 97.1553 113.039 88.7078C113.039 88.1816 113.162 88.0233 113.711 88.0233C124.634 88.0419 135.552 88.0326 146.476 88.0373C147.992 88.0373 149.505 88.0699 151.021 88.0885C151.266 88.0885 151.505 88.0885 151.74 88V88.0047Z" fill="#FF4855"/>
<path d="M0 90.8268C0.208441 90.9156 0.180018 90.7334 0.217916 90.6352C0.781656 89.0607 2.57236 87.8319 4.24936 88.0188C4.82732 88.0842 5.41948 88.0562 6.0069 88.0562C18.4044 88.0562 30.8067 88.0562 43.2042 88.0562C49.1969 88.0562 55.1849 88.0422 61.1776 88.0328C61.405 88.0328 61.6276 88.0095 61.855 88.0001C73.9494 88.1123 86.0437 88.0375 98.138 88.0562C98.2896 88.0562 98.4412 88.0655 98.5928 88.0562C98.8771 88.0328 99.0287 88.131 98.9955 88.4346C98.9813 88.5468 98.9955 88.6589 98.9955 88.771C98.9955 98.5546 98.9955 108.338 98.9955 118.117C98.9955 118.696 98.7018 119.173 98.536 119.696C98.3038 120.448 97.6122 120.752 97.2237 121.327C97.1337 121.462 96.949 121.472 96.8353 121.5C96.2858 121.649 95.8357 122 95.1962 122C67.4924 121.976 39.7886 121.976 12.0801 121.981C11.7959 121.981 11.5117 121.995 11.2322 122C8.85876 122 6.48537 121.971 4.11672 122C2.28338 122.023 0.937987 121.191 0.241603 119.509C0.198967 119.402 0.241603 119.187 0 119.28V90.8221L0 90.8268Z" fill="#FF4855"/>
<path d="M199.848 140.435C200.077 140.553 199.979 140.77 199.979 140.94C199.984 167.853 199.988 194.767 199.974 221.681C199.974 222.431 199.601 223.111 199.349 223.814C198.952 224.909 197.882 225.182 197.209 225.914C197.158 225.97 197.037 225.966 196.943 225.97C196.775 225.98 196.607 225.97 196.439 225.97C170.983 225.97 145.523 225.97 120.067 225.966C118.549 225.966 117.022 226.112 115.518 225.801C115.41 225.362 114.91 225.428 114.719 225.13C114.569 225.187 114.588 225.291 114.574 225.381C114.56 225.484 114.518 225.56 114.401 225.55C114.242 225.541 114.233 225.409 114.252 225.3C114.298 225.078 114.256 224.918 114.14 224.696C113.481 223.45 113 222.195 113 220.699C113.047 194.356 113.042 168.009 113.056 141.666C113.056 140.397 113.476 139.241 114.401 138.396C114.803 138.028 115.345 137.717 115.784 137.386C116.456 136.876 117.11 137.018 117.774 137.018C143.748 137.004 169.722 137.009 195.701 137.004C196.696 137.004 197.476 137.523 198.242 138.052C199.031 138.599 199.442 139.425 199.746 140.312C199.764 140.359 199.82 140.392 199.858 140.435H199.848Z" fill="#FF4855"/>
<path d="M96.5717 225.821C95.8428 226.061 95.0901 225.986 94.3423 225.986C67.868 225.986 41.3984 225.986 14.924 226C13.3762 226 12.2733 225.08 11.6911 223.774C11.4733 223.292 11.2698 222.807 11.071 222.316C11.0237 222.198 11.0142 222.061 11.0142 221.934C11.0189 195.34 11.0379 168.75 11 142.156C11 141.462 11.3124 140.877 11.2698 140.212C11.5207 139.165 12.2591 138.443 13.0591 137.854C13.6413 137.42 14.3087 137 15.1371 137C41.7818 137.009 68.4312 137.009 95.0759 137.005C95.3789 137.005 95.6298 137.028 95.8854 137.269C96.1173 137.491 96.4108 137.736 96.8131 137.637C96.9457 137.604 97.0498 137.712 97.1539 137.807C97.987 138.561 98.5314 139.5 98.929 140.533C98.9858 140.684 98.9479 140.868 98.9479 141.038C98.9574 168.146 98.9669 195.25 99 222.358C99 222.83 98.7965 223.212 98.6166 223.519C98.3231 224.019 98.1716 224.632 97.6888 225.028C97.4995 225.184 97.3527 225.349 97.0687 225.368C96.8368 225.382 96.6191 225.528 96.5812 225.816L96.5717 225.821Z" fill="#FF4855"/>
<defs>
<linearGradient id="paint0_linear_839_36" x1="359.5" y1="74" x2="359.5" y2="175" gradientUnits="userSpaceOnUse">
<stop offset="0.510417" stop-color="white"/>
<stop offset="0.953125" stop-color="#858D9F"/>
</linearGradient>
<linearGradient id="paint1_linear_839_36" x1="335.972" y1="174.325" x2="337.208" y2="149.96" gradientUnits="userSpaceOnUse">
<stop stop-color="#FF5763"/>
<stop offset="1" stop-color="#FF2929"/>
<stop offset="1" stop-color="#FF6767"/>
</linearGradient>
<linearGradient id="paint2_linear_839_36" x1="104" y1="169.522" x2="104" y2="226" gradientUnits="userSpaceOnUse">
<stop stop-color="white"/>
<stop offset="1" stop-color="#C2C6CF"/>
</linearGradient>
</defs>
</svg>
